<svg width="119" height="103" viewBox="0 0 119 103" fill="none" xmlns="http://www.w3.org/2000/svg">
<path d="M109.128 18.671C109.128 27.9323 64.0342 38.9087 64.0342 46.798C64.0342 56.0594 109.128 59.1465 117.045 59.1465C124.963 59.1465 109.128 99.622 64.0342 102.709C18.9403 105.796 0.00769696 83.8434 0.00769696 59.1465C0.00769696 34.4496 -1.36922 18.671 32.7094 4.95048C66.7881 -8.77003 109.128 9.40964 109.128 18.671Z" fill="#6EBFBA"/>
<path d="M74.4585 12.4891C80.6006 12.4891 74.7997 21.2083 68.6575 37.6275C67.6537 40.3452 104.487 28.4554 106.876 35.2496C109.264 42.0437 76.5059 46.1202 74.4585 49.1776C72.4111 52.235 108.582 55.6321 103.463 63.7851C100.051 69.2204 77.8708 59.3689 74.4585 61.0674C71.0461 62.7659 91.1789 81.1102 83.6718 86.2058C76.1646 91.3015 70.0224 65.8233 65.9277 65.8233C61.8329 65.8233 67.6338 93 58.0793 93C48.5248 93 54.3258 64.8042 51.5959 63.7851C48.866 62.7659 35.2168 86.8852 28.0509 81.4499C20.885 76.0146 42.0414 60.388 42.0414 56.9909C42.0414 53.5938 13.3779 64.4645 12.013 53.2541C11.3333 47.6718 37.6054 50.1967 39.994 47.1394C42.3826 44.082 14.2209 39.6658 18.1551 30.1539C20.5438 24.3789 43.4063 40.3452 44.43 37.6275C45.4537 34.9099 35.2168 15.8862 42.0414 11.47C48.8661 7.05375 54.3258 35.2496 56.7144 33.8907C59.103 32.5319 64.0803 12.4891 74.4585 12.4891Z" fill="#FFEACC"/>
<path d="M56.2361 59C43.3565 59 37.5947 38.7967 39.2894 34.9651C44.3734 30.0884 47.7627 42.2801 51.1521 42.6284C54.5415 42.9768 51.491 28.6951 56.2361 24.5151C60.9811 20.3352 61.6591 42.9768 63.6927 42.6285C65.7263 42.2801 69.7936 30.4368 75.2165 34.9651C79.4581 38.5069 77.2501 59 56.2361 59Z" fill="#FF9D84"/>
</svg>
