<?xml version="1.0" encoding="UTF-8"?>
<svg id="Warstwa_1" xmlns="http://www.w3.org/2000/svg" width="1000" height="312.5" viewBox="0 0 1000 312.5">
  <defs>
    <style>
      .cls-1 {
        fill: #ffe9cc;
      }

      .cls-2 {
        stroke: #f39a85;
        stroke-width: 31.18px;
      }

      .cls-2, .cls-3, .cls-4 {
        fill: none;
        stroke-linecap: round;
        stroke-linejoin: round;
      }

      .cls-5 {
        fill: #4ab6ce;
      }

      .cls-3 {
        stroke: #6ec0bb;
      }

      .cls-3, .cls-4 {
        stroke-width: 11.34px;
      }

      .cls-4 {
        stroke: #4ab6ce;
      }

      .cls-6 {
        fill: #6ec0bb;
      }
    </style>
  </defs>
  <g>
    <path class="cls-6" d="M736.11,267.95c-2.12,0-4.3-1.84-5.75-3.38-13.6-14.46-24.7-65.11-22.42-102.26,3.59-58.39,18.04-105.88,32.2-105.88,10.04,0,17.55,5.69,22.96,17.41,4.58,9.91,7.57,24.09,8.89,42.16-1.49,3.71-12.6,14.93-19.31,21.7-15.34,15.48-20.7,21.37-20.67,26.69.05,7.97,9.8,12.92,25.69,20.34,4.54,2.12,11.14,5.19,13.58,7-2.1,37.04-13.88,76.23-35.18,76.23Z"/>
    <path class="cls-6" d="M740.15,62.1c5.26,0,12.03,1.6,17.82,14.12,4.15,8.98,6.92,21.9,8.25,38.45-2.79,4.14-11.91,13.33-17.55,19.03-15.91,16.05-22.36,22.88-22.31,30.72.08,11.97,13.46,18.21,28.97,25.44,3.09,1.44,7.29,3.4,10.1,4.92-1.34,18.83-4.94,35.8-10.28,48.2-3.75,8.71-10.03,19.09-18.76,19.29-1.94-.93-9.47-8.86-16.03-34.7-5.33-21-7.92-45.88-6.75-64.92,1.53-24.93,5.53-50.96,10.69-69.63,7.1-25.68,14.31-30.93,15.85-30.93M740.15,50.76c-23.62,0-35.18,67.6-37.86,111.2-2.68,43.6,12.93,111.66,33.83,111.66,25.94,0,38.92-41.97,40.93-83.34.29-6.02-39.3-17.13-39.35-25.94-.04-7.17,40.56-40.35,40.01-48.21-2.26-31.98-10.38-65.38-37.55-65.38h0Z"/>
  </g>
  <g>
    <path class="cls-6" d="M665.6,46.58c-32.52-1.59-48,67.9-48,108.82s2.64,116.6,32.74,118.22c30.17,1.63,38.59-62.07,43.29-115.23,4.69-53.17-3.88-110.62-28.03-111.81Z"/>
    <path class="cls-1" d="M668,170.16s16.9,9.92,14.52,19.16c-2.35,9.09-16.37-6.64-16.9-7.21.37,1.15,12.63,28.76,4.98,36.13-7.76,7.45-12.44-31.68-12.44-31.68,0,0,2.29,62.4-7.54,60.9-9.6-1.45.03-59.63.65-63.16-.96,3.33-12.93,42.54-14.96,29.76-2.06-12.93,6.4-34.93,6.63-35.54-.46.28-13.5,8.24-14.08-1.13-.6-9.54,12.31-12.3,12.31-12.3,0,0-11.71-9.77-11.42-18.41.3-8.54,15.63,5.07,16.18,5.58-.37-.96-15.9-34.9-9.92-42.55,8.65-11.03,14.99,36.6,14.99,36.6,0,0,4.39-65.81,11.25-65.51,6.86.29,1.87,65.51,1.87,65.51,0,0,13.63-44.35,18.7-31.83s-13.33,39.58-13.33,39.58c0,0,16.91-4.7,17.21,2.76.3,7.45-18.7,13.34-18.7,13.34Z"/>
  </g>
  <g>
    <path class="cls-6" d="M344.6,39.14c-20.23,1.24-26.76,61.26-26.76,122.08s12.97,109.56,34.22,109.72c17.29.12,28.84-50.22,28.84-111.06s-14.32-122.09-36.3-120.74ZM331.03,141.84c-12.3-9.17,2.46-86.31,15.88-90.34,13.41-4.02,30.41,75.13,24.37,77.15-12.11,4.03-14.53-8.5-23.48-9.17-8.94-.67-10.85,26.77-16.77,22.36ZM345.57,235.53c-15.43-5.82-19.68-32.2,1.78-22.36,14.24,6.52,14.23,28.39-1.78,22.36ZM355.4,170.68c-27.05-17.44-5.44-35.96,4.92-29.51,21.92,13.64,13.41,41.32-4.92,29.51Z"/>
    <path class="cls-5" d="M345.57,235.53c-15.43-5.82-19.68-32.2,1.78-22.36,14.24,6.52,14.23,28.39-1.78,22.36Z"/>
    <path class="cls-5" d="M355.4,170.68c-27.05-17.44-5.44-35.96,4.92-29.51,21.92,13.64,13.41,41.32-4.92,29.51Z"/>
    <path class="cls-5" d="M371.28,128.65c-12.11,4.03-14.53-8.5-23.48-9.17-8.94-.67-10.85,26.77-16.77,22.36-12.3-9.17,2.46-86.31,15.88-90.34,13.41-4.02,30.41,75.13,24.37,77.15Z"/>
  </g>
  <path class="cls-3" d="M476.3,103.74c9.81-20.8,39.66-73.77,58.79-55.9,21.62,20.2-23.42,89.21-48.98,138.63-22.89,44.27-49.47,86.06-16.76,85.87,28.62-.17,42.27-.43,42.27-.43"/>
  <path class="cls-3" d="M605.63,52.76c-37.85-2.68-43.31-5.34-50.12,45.61-5.17,38.72,3.68,46.96,24.12,44.72,17.9-1.96,30.95,19.85,11.28,87.2-22.08,75.58-57.28,35.33-42.97.89"/>
  <path class="cls-3" d="M110.76,109.05c5.68-12.29,23.7-72.45,29.52-71.11s-4.06,228.93-4.06,235.42"/>
  <path class="cls-3" d="M168.19,105.19s36.32-79.78,50.58-67.27c35.33,31-64.83,222-44.97,230.3,11.63,4.86,39.18,4.53,53.22,3.16"/>
  <path class="cls-3" d="M297.45,40.04s-44.09-3.57-46.22,3.73c-3.13,10.73-8.67,73.81.6,79,11.18,6.26,46.5-13.82,49.64,46.51,4.92,94.51-43.38,131.03-57.69,79.16"/>
  <path class="cls-4" d="M554.26,10.81c-91.53,0-99.08,72.08-128.8,154.96-27.5,76.7-25.34,130.14-122.53,130.14"/>
  <g>
    <path class="cls-3" d="M915.22,106.81c-1.48,77.29-28.31,101.43-13.19,155.26,8.87,31.56,33.18-10,48.09-4.63"/>
    <path class="cls-6" d="M804.92,209.74c2-2.32,0,27.73,4.77,25.34,4.77-2.39,13.12-15.2,18.78-11.33s11.93,14.31,11.93,14.31c0,0,14.91-28.92,28.92-15.8,14.01,13.12,20.27,34.58,27.43,26.24,7.16-8.35,5.88,6.72,5.88,6.72,0,0-19.89,24.29-27.04,17.13s-8.42-36.97-17.96-28.92c-9.54,8.05-10.66,38.46-19.3,30.11-8.65-8.35-9.24-42.04-17.29-34.88s-14.61,42.93-24.15,34.58-12.52-39.65,8.05-63.5Z"/>
    <path class="cls-2" d="M913.74,65.14c1.19,28.62,2.39,71.11-2.98,93.76"/>
  </g>
</svg>