<?xml version="1.0" encoding="UTF-8"?>
<svg id="Warstwa_1" xmlns="http://www.w3.org/2000/svg" width="1000" height="312.5" viewBox="0 0 1000 312.5">
  <defs>
    <style>
      .cls-1 {
        fill: #6a94b2;
      }

      .cls-2 {
        fill: #f18a7d;
      }

      .cls-3 {
        fill: #a16482;
      }

      .cls-4 {
        stroke: #6a94b2;
      }

      .cls-4, .cls-5 {
        stroke-width: 11.34px;
      }

      .cls-4, .cls-5, .cls-6 {
        fill: none;
        stroke-linecap: round;
        stroke-linejoin: round;
      }

      .cls-5 {
        stroke: #a16482;
      }

      .cls-6 {
        stroke: #f18a7d;
        stroke-width: 31.18px;
      }
    </style>
  </defs>
  <path class="cls-5" d="M421.62,105.02c10.73-20.8,43.38-73.77,64.31-55.9,23.65,20.2-25.62,89.21-53.58,138.63-25.04,44.27-54.11,86.06-18.34,85.87,31.3-.17,46.24-.43,46.24-.43"/>
  <path class="cls-5" d="M563.1,54.04c-41.41-2.68-47.38-5.34-54.82,45.61-5.66,38.72,4.02,46.96,26.39,44.72,19.58-1.96,33.86,19.85,12.34,87.2-24.15,75.58-62.66,35.33-47,.89"/>
  <path class="cls-5" d="M104.2,110.64s31.16-74.62,45.42-62.1c35.33,31-59.67,212.83-39.8,221.13,11.63,4.86,39.18,4.53,53.22,3.16"/>
  <path class="cls-5" d="M231.46,45.5s-44.09-3.57-46.22,3.73c-3.13,10.73-8.67,73.81.6,79,11.18,6.26,46.5-13.82,49.64,46.51,4.92,94.51-43.38,131.03-57.69,79.16"/>
  <g>
    <path class="cls-3" d="M280.88,35.48c-20.23,1.24-26.46,66.79-26.46,127.61s12.97,109.56,34.22,109.72c17.29.12,28.84-50.22,28.84-111.06s-14.62-127.62-36.6-126.27ZM267.6,143.71c-12.3-9.17,2.46-86.31,15.88-90.34,13.41-4.02,30.41,75.13,24.37,77.15-12.11,4.03-14.53-8.5-23.48-9.17-8.94-.67-10.85,26.77-16.77,22.36ZM282.14,237.4c-15.43-5.82-19.68-32.2,1.78-22.36,14.24,6.52,14.23,28.39-1.78,22.36ZM291.97,172.55c-27.05-17.44-5.44-35.96,4.92-29.51,21.92,13.64,13.41,41.32-4.92,29.51Z"/>
    <path class="cls-1" d="M282.14,237.4c-15.43-5.82-19.68-32.2,1.78-22.36,14.24,6.52,14.23,28.39-1.78,22.36Z"/>
    <path class="cls-1" d="M291.97,172.55c-27.05-17.44-5.44-35.96,4.92-29.51,21.92,13.64,13.41,41.32-4.92,29.51Z"/>
    <path class="cls-1" d="M307.85,130.52c-12.11,4.03-14.53-8.5-23.48-9.17-8.94-.67-10.85,26.77-16.77,22.36-12.3-9.17,2.46-86.31,15.88-90.34,13.41-4.02,30.41,75.13,24.37,77.15Z"/>
  </g>
  <path class="cls-4" d="M497.02,10.81c-73.57,0-99.08,72.08-128.8,154.96-27.5,76.7-42.93,130.14-122.53,130.14"/>
  <g>
    <path class="cls-3" d="M625.09,46.58c-32.52-1.59-48,67.9-48,108.82s2.64,116.6,32.74,118.22c30.17,1.63,38.59-62.07,43.29-115.23,4.69-53.17-3.88-110.62-28.03-111.81ZM627.4,165.24s15.5,5.82,13.12,15.06c-2.35,9.09-15.27-8.9-15.8-9.47.37,1.15,16.07,30.94,8.42,38.31-7.76,7.45-14.23-34.06-14.23-34.06,0,0,3.12,53.97-6.71,52.47-9.6-1.45,1.17-50.28,1.79-53.81-.96,3.33-17.5,46.62-19.53,33.84-2.09-13.11,13.27-38.54,13.27-38.54,0,0-17.15,13.42-17.74,3.88-.6-9.54,15.72-10.81,15.72-10.81,0,0-17.35-7.16-17.06-15.8.3-8.54,18.75,7.91,19.3,8.42-.37-.96-16.12-32.3-10.14-39.95,8.65-11.03,15.73,37.49,15.73,37.49,0,0,.89-56.79,7.75-56.49,6.77.29.77,55.28.61,56.76.36-1.23,13.62-45.86,18.62-33.51,5,12.35-13.05,35.29-13.55,35.92.49-.19,16.6-6.6,16.9.75.31,7.45-16.47,9.54-16.47,9.54Z"/>
    <path class="cls-2" d="M627.4,165.24s15.5,5.82,13.12,15.06c-2.35,9.09-15.27-8.9-15.8-9.47.37,1.15,16.07,30.94,8.42,38.31-7.76,7.45-14.23-34.06-14.23-34.06,0,0,3.12,53.97-6.71,52.47-9.6-1.45,1.17-50.28,1.79-53.81-.96,3.33-17.5,46.62-19.53,33.84-2.09-13.11,13.27-38.54,13.27-38.54,0,0-17.15,13.42-17.74,3.88-.6-9.54,15.72-10.81,15.72-10.81,0,0-17.35-7.16-17.06-15.8.3-8.54,18.75,7.91,19.3,8.42-.37-.96-16.12-32.3-10.14-39.95,8.65-11.03,15.73,37.49,15.73,37.49,0,0,.89-56.79,7.75-56.49,6.77.29.77,55.28.61,56.76.36-1.23,13.62-45.86,18.62-33.51,5,12.35-13.05,35.29-13.55,35.92.49-.19,16.6-6.6,16.9.75.31,7.45-16.47,9.54-16.47,9.54Z"/>
  </g>
  <g>
    <path class="cls-3" d="M699.17,270.93c-2.12,0-4.3-1.84-5.75-3.38-13.6-14.46-24.71-65.11-22.42-102.26,3.59-58.38,18.04-105.88,32.21-105.88,10.04,0,17.55,5.69,22.96,17.41,4.58,9.91,7.57,24.09,8.89,42.16-1.49,3.71-12.6,14.93-19.31,21.7-15.34,15.48-20.7,21.37-20.67,26.69.05,7.98,9.8,12.92,25.69,20.34,4.54,2.12,11.13,5.19,13.58,7-2.1,37.04-13.88,76.23-35.18,76.23Z"/>
    <path class="cls-3" d="M703.2,65.08c5.26,0,12.03,1.6,17.82,14.12,4.15,8.98,6.92,21.9,8.25,38.45-2.79,4.14-11.91,13.33-17.55,19.03-15.91,16.05-22.36,22.88-22.31,30.72.07,11.97,13.46,18.21,28.97,25.44,3.09,1.44,7.29,3.4,10.1,4.92-1.34,18.83-4.94,35.8-10.28,48.2-3.75,8.72-10.03,19.09-18.76,19.29-1.94-.93-9.47-8.86-16.03-34.7-5.33-21-7.92-45.88-6.75-64.92,1.53-24.93,5.53-50.96,10.69-69.63,7.1-25.68,14.31-30.93,15.85-30.93M703.2,53.74c-23.62,0-35.18,67.6-37.86,111.2-2.68,43.6,12.93,111.66,33.83,111.66,25.94,0,38.92-41.97,40.93-83.34.29-6.02-39.3-17.13-39.35-25.94-.04-7.17,40.56-40.35,40-48.21-2.26-31.98-10.38-65.38-37.55-65.38h0Z"/>
  </g>
  <g>
    <path class="cls-5" d="M866.79,109.8c-1.48,77.29-28.31,101.43-13.19,155.26,8.87,31.56,33.18-10,48.09-4.63"/>
    <path class="cls-3" d="M756.49,212.72c2-2.32,0,27.73,4.77,25.34s13.12-15.2,18.78-11.33,11.93,14.31,11.93,14.31c0,0,14.91-28.92,28.92-15.8s20.27,34.58,27.43,26.24,5.88,6.72,5.88,6.72c0,0-19.89,24.29-27.04,17.13s-8.42-36.97-17.96-28.92c-9.54,8.05-10.66,38.46-19.3,30.11-8.65-8.35-9.24-42.04-17.29-34.88s-14.61,42.93-24.15,34.58-12.52-39.65,8.05-63.5Z"/>
    <path class="cls-6" d="M865.31,68.12c1.19,28.62,2.39,71.11-2.98,93.76"/>
  </g>
</svg>